<svg width="23" height="22" viewBox="0 0 23 22" fill="none" xmlns="http://www.w3.org/2000/svg">
<path fill-rule="evenodd" clip-rule="evenodd" d="M13.9679 19.6574C16.4219 18.9592 18.4484 17.2458 19.5645 15H15.2273C14.9649 16.8476 14.5261 18.4523 13.9679 19.6574ZM9.03211 19.6574C8.47386 18.4523 8.03506 16.8476 7.77268 15H3.43552C4.55157 17.2458 6.57809 18.9592 9.03211 19.6574ZM9.79454 15C9.97899 16.1911 10.2405 17.2402 10.5512 18.0947C10.8668 18.9627 11.1954 19.5244 11.4596 19.8317C11.4737 19.8482 11.4872 19.8634 11.5 19.8774C11.5128 19.8634 11.5263 19.8482 11.5404 19.8317C11.8046 19.5244 12.1332 18.9627 12.4488 18.0947C12.7595 17.2402 13.021 16.1911 13.2055 15H9.79454ZM13.4293 13H9.57072C9.52462 12.3581 9.5 11.6894 9.5 11C9.5 10.3106 9.52462 9.64193 9.57072 9H13.4293C13.4754 9.64193 13.5 10.3106 13.5 11C13.5 11.6894 13.4754 12.3581 13.4293 13ZM15.434 13H20.277C20.4229 12.3568 20.5 11.6874 20.5 11C20.5 10.3126 20.4229 9.64322 20.277 9H15.434C15.4774 9.64855 15.5 10.317 15.5 11C15.5 11.683 15.4774 12.3514 15.434 13ZM15.2273 7H19.5645C18.4484 4.75423 16.4219 3.04077 13.9679 2.34257C14.5261 3.54772 14.9649 5.1524 15.2273 7ZM13.2055 7C13.021 5.80888 12.7595 4.75975 12.4488 3.90531C12.1332 3.03731 11.8046 2.4756 11.5404 2.16828C11.5263 2.15181 11.5128 2.13661 11.5 2.12259C11.4872 2.13661 11.4737 2.15181 11.4596 2.16828C11.1954 2.4756 10.8668 3.03731 10.5512 3.90531C10.2405 4.75975 9.97899 5.80888 9.79454 7H13.2055ZM7.77268 7C8.03506 5.1524 8.47386 3.54772 9.03211 2.34257C6.57809 3.04077 4.55157 4.75423 3.43552 7H7.77268ZM11.5 0C5.42487 0 0.5 4.92487 0.5 11C0.5 17.0751 5.42487 22 11.5 22C17.5751 22 22.5 17.0751 22.5 11C22.5 4.92487 17.5751 0 11.5 0ZM7.56596 9C7.52264 9.64855 7.5 10.317 7.5 11C7.5 11.683 7.52264 12.3514 7.56596 13H2.72302C2.57706 12.3568 2.5 11.6874 2.5 11C2.5 10.3126 2.57706 9.64322 2.72302 9H7.56596Z" fill="#1D1D1D"/>
</svg>
