<svg width="163" height="70" viewBox="0 0 163 70" fill="none" xmlns="http://www.w3.org/2000/svg">
<path d="M44.2041 31.4313C44.2093 32.646 44.0719 33.8572 43.7947 35.0404C43.5324 36.165 43.1367 37.2548 42.616 38.2869C42.1135 39.2852 41.4887 40.2181 40.7557 41.0644C40.111 41.8131 39.3819 42.4858 38.5827 43.0695C38.5478 43.0944 38.5182 43.1259 38.4956 43.1622C38.473 43.1985 38.4579 43.2388 38.451 43.2809C38.4441 43.323 38.4457 43.3661 38.4557 43.4076C38.4656 43.4491 38.4837 43.4882 38.5089 43.5228L43.0077 49.6252C43.0338 49.66 43.0497 49.7014 43.0534 49.7446C43.0572 49.7878 43.0488 49.8312 43.0291 49.87C43.0094 49.9087 42.9792 49.9412 42.9419 49.9639C42.9046 49.9866 42.8618 49.9985 42.8181 49.9983H41.1123C39.5459 49.9973 38.0073 49.5876 36.6507 48.8103C35.2941 48.033 34.1672 46.9155 33.3829 45.5697C33.3494 45.5119 33.2985 45.4659 33.2375 45.4381C33.1764 45.4103 33.1081 45.402 33.0421 45.4145C32.2198 45.5594 31.3863 45.6323 30.5511 45.6325C29.036 45.6566 27.5327 45.365 26.1383 44.7764C24.8784 44.237 23.7472 43.4404 22.8182 42.4383C21.8933 41.4262 21.1819 40.2405 20.726 38.9512C20.2337 37.56 19.9882 36.0946 20.0004 34.6202C19.9955 33.3271 20.1537 32.0385 20.4713 30.7844C20.7689 29.5954 21.2162 28.4485 21.8028 27.3705C22.3706 26.3292 23.0735 25.3661 23.8933 24.5059C24.7053 23.6545 25.6302 22.9166 26.6425 22.3125C27.6724 21.7001 28.7801 21.2269 29.9363 20.9055C31.1595 20.5675 32.4241 20.3996 33.6938 20.4068C35.2018 20.3837 36.6979 20.6748 38.0855 21.2611C39.3449 21.8016 40.4743 22.6015 41.3986 23.608C42.3191 24.6294 43.0267 25.8217 43.4803 27.116C43.9707 28.5022 44.2155 29.9622 44.2041 31.4313ZM38.5019 31.5673C38.5134 30.6311 38.3897 29.6981 38.1347 28.7968C37.919 28.023 37.5539 27.2982 37.0596 26.6626C36.5977 26.0773 36.0046 25.6069 35.3275 25.2887C34.5994 24.9578 33.8059 24.7928 33.0052 24.8058C31.9441 24.786 30.8944 25.0255 29.9486 25.5032C29.0417 25.9788 28.2563 26.6539 27.6526 27.4769C26.9845 28.3996 26.4926 29.4362 26.2015 30.5351C25.853 31.8249 25.6834 33.1559 25.6974 34.4912C25.6839 35.4241 25.8021 36.3544 26.0487 37.2547C26.2598 38.0209 26.6176 38.7396 27.1027 39.3714C27.558 39.9548 28.1462 40.4226 28.819 40.7366C29.5523 41.0687 30.3512 41.2337 31.1571 41.2195C32.2027 41.2423 33.2381 41.0119 34.1738 40.5484C35.1094 40.0848 35.9173 39.4019 36.5273 38.5589C37.1939 37.6373 37.6884 36.6044 37.9872 35.5094C38.3418 34.2253 38.515 32.8986 38.5019 31.5673Z" fill="#1D1D1D"/>
<path d="M51.8839 27.7897L50.5523 38.9397C50.5295 39.1141 50.512 39.2884 50.5014 39.4384C50.4909 39.5883 50.4838 39.7348 50.4838 39.8708C50.4838 40.4706 50.5892 40.8873 50.8001 41.1244C50.9224 41.2479 51.0707 41.3432 51.2343 41.4035C51.398 41.4637 51.5729 41.4875 51.7469 41.4731C52.1403 41.4621 52.5249 41.3542 52.8659 41.1593C53.289 40.9269 53.6721 40.6291 54.0007 40.277C54.394 39.859 54.7349 39.3954 55.0161 38.8961C55.343 38.3227 55.6035 37.7144 55.7926 37.0828L56.2967 32.9942C56.4728 31.5558 57.1735 30.2312 58.2665 29.2707C59.3596 28.3102 60.7692 27.7802 62.229 27.781L59.9453 46.4841C58.919 46.2215 57.9824 45.6904 57.2334 44.946C56.4844 44.2017 55.9504 43.2715 55.6871 42.2525C54.8334 43.3143 53.739 44.3447 52.7605 44.8678C51.82 45.367 50.7704 45.6293 49.7039 45.6315C49.08 45.6417 48.4608 45.5229 47.8857 45.2828C47.3343 45.0462 46.8442 44.6885 46.4522 44.2366C46.0257 43.7413 45.7058 43.1646 45.5124 42.5419C45.279 41.793 45.1664 41.0121 45.1786 40.2282C45.1786 40.026 45.1874 39.8167 45.205 39.6023C45.2225 39.3878 45.2419 39.1664 45.2647 38.9415L45.9674 33.0134C46.1394 31.5759 46.8366 30.2508 47.9271 29.2894C49.0175 28.3279 50.4254 27.7968 51.8839 27.7967V27.7897Z" fill="#1D1D1D"/>
<path d="M77.4085 46.4931C77.1274 46.4931 74.1288 45.766 73.2663 42.1342C72.5372 43.128 71.4657 44.2125 70.5785 44.7774C69.7038 45.3383 68.6827 45.6329 67.6413 45.6248C67.0065 45.6253 66.3785 45.4953 65.7968 45.2429C65.1931 44.9801 64.6564 44.5863 64.2263 44.0905C63.7361 43.5127 63.3648 42.8451 63.1336 42.1255C62.8437 41.2134 62.7054 40.2606 62.7244 39.3044C62.7162 37.7509 63.0146 36.2108 63.6027 34.7712C64.1685 33.3729 65.0039 32.0978 66.0621 31.0173C67.1328 29.9324 68.4053 29.0638 69.8091 28.4595C71.3124 27.8146 72.9356 27.4909 74.5732 27.5093C75.4299 27.5117 76.2855 27.57 77.1345 27.6836C78.0066 27.7976 78.8645 28.0015 79.694 28.2921L77.4085 46.4931ZM69.7581 41.4821C70.173 41.4713 70.5715 41.3185 70.8859 41.0497C71.2911 40.7137 71.6397 40.3158 71.9189 39.871C72.2712 39.3186 72.5712 38.735 72.8148 38.1275C73.098 37.4329 73.3327 36.7199 73.5175 35.9934L74.1323 31.1289H73.8249C73.0002 31.1197 72.1867 31.3182 71.4604 31.706C70.7439 32.0949 70.1183 32.6296 69.6246 33.2752C69.0966 33.9688 68.6953 34.7489 68.4388 35.5802C68.1551 36.4878 68.0141 37.4335 68.0208 38.3838C68.0127 38.8674 68.0587 39.3504 68.1578 39.824C68.2248 40.1614 68.349 40.485 68.525 40.7812C68.6561 41.0041 68.8446 41.1882 69.0713 41.3147C69.2824 41.427 69.5186 41.4846 69.7581 41.4821Z" fill="#1D1D1D"/>
<path d="M79.9521 46.4934L82.5872 25.093C86.0637 25.9055 87.4532 29.3316 87.0333 31.4535C87.7167 30.2557 88.1524 29.2985 88.9481 28.6551C89.7439 28.0117 90.5713 27.6892 91.425 27.6892H92.8409L92.5159 30.5085C92.4446 31.0595 92.1734 31.5658 91.753 31.9326C91.3327 32.2995 90.792 32.5017 90.2322 32.5014C89.3551 32.5014 88.5787 32.8937 87.9029 33.6783C87.2272 34.4629 86.6779 35.7252 86.2551 37.4653L85.7756 41.3795C85.603 42.7901 84.916 44.0891 83.8444 45.0312C82.7728 45.9734 81.3907 46.4935 79.9591 46.4934H79.9521Z" fill="#1D1D1D"/>
<path d="M101.098 20.0035L99.3414 34.2204H99.6927C99.939 34.2306 100.184 34.184 100.409 34.0844C100.627 33.9649 100.814 33.7972 100.956 33.5945L103.239 30.5171C103.864 29.6747 104.679 28.9897 105.619 28.5175C106.559 28.0453 107.598 27.7992 108.652 27.7989H111.032L106.082 34.0513C105.861 34.3382 105.609 34.5997 105.33 34.8306C105.064 35.0529 104.778 35.2513 104.476 35.4234C104.715 35.6158 104.925 35.8413 105.1 36.093C105.287 36.3663 105.444 36.6586 105.569 36.9648L109.121 45.3687H107.594C106.347 45.3688 105.129 44.9963 104.099 44.2997C103.068 43.6031 102.273 42.6147 101.817 41.4631L100.55 38.2689C100.474 38.0503 100.334 37.8588 100.149 37.718C99.9332 37.6185 99.6951 37.5748 99.4573 37.5907H98.911L98.0853 44.5841C97.9115 46.0041 97.2196 47.3118 96.1405 48.2601C95.0615 49.2084 93.6698 49.7317 92.2285 49.731L95.2342 25.147C95.4104 23.7269 96.1036 22.4198 97.1833 21.4718C98.263 20.5238 99.6547 20.0003 101.096 20L101.098 20.0035Z" fill="#1D1D1D"/>
<path d="M112.629 41.5652V41.274C112.629 41.1607 112.629 41.0003 112.656 40.791C112.682 40.5818 112.701 40.3046 112.74 39.9611C112.779 39.6176 112.835 39.1608 112.903 38.5959L113.808 31.4125H111.524L111.654 30.342C111.74 29.6371 112.083 28.9878 112.619 28.5169C113.154 28.0459 113.845 27.7859 114.56 27.7859L114.722 26.7851C114.906 25.6418 115.495 24.6012 116.382 23.8499C117.27 23.0987 118.398 22.686 119.565 22.686H120.076L119.426 27.819H123.387L123.296 28.5583C123.199 29.3456 122.815 30.0705 122.217 30.5963C121.619 31.1221 120.847 31.4124 120.048 31.4125H118.983L118.13 38.3082C118.072 38.7732 118.029 39.1376 118.001 39.4014C117.973 39.6665 117.95 39.8705 117.933 40.0117C117.915 40.1529 117.905 40.2488 117.898 40.2994C117.891 40.3499 117.898 40.3813 117.898 40.3935C117.886 40.6844 117.967 40.9715 118.128 41.2147C118.21 41.3264 118.321 41.4153 118.447 41.4729C118.574 41.5306 118.714 41.5552 118.853 41.5443H118.908C121.16 41.2705 121.954 42.3864 122.583 43.7673C121.661 44.3827 120.666 44.8828 119.621 45.2563C118.828 45.5074 118 45.6345 117.167 45.6329C116.541 45.6413 115.918 45.5465 115.324 45.3522C114.804 45.18 114.326 44.9034 113.919 44.5397C113.525 44.1817 113.211 43.7457 112.997 43.2599C112.766 42.7235 112.642 42.1482 112.629 41.5652Z" fill="#1D1D1D"/>
<path d="M140.894 37.2244L142.124 38.2601C142.164 37.8521 142.184 37.4354 142.186 37.01C142.205 35.9259 142.02 34.8478 141.639 33.8315C141.413 33.2489 141.109 32.6989 140.736 32.196C140.974 33.0916 141.092 34.0143 141.088 34.9404C141.088 35.7058 141.023 36.4698 140.894 37.2244Z" fill="#FB9000"/>
<path d="M141.369 41.3669C141.382 41.3338 141.397 41.3041 141.41 41.271C141.637 40.6915 141.813 40.0936 141.937 39.4839L140.631 38.3889C140.516 38.8174 140.377 39.2394 140.215 39.653C140.141 39.8395 140.062 40.0226 139.981 40.204L141.369 41.3669Z" fill="#FB9000"/>
<path d="M139.252 31.7639C138.922 30.8956 138.413 30.1048 137.759 29.4415C137.125 28.8144 136.366 28.3267 135.53 28.0101C134.647 27.6768 133.709 27.51 132.765 27.5184C131.505 27.5155 130.261 27.7876 129.119 28.3152C127.965 28.8461 126.928 29.6007 126.071 30.5347C125.171 31.5243 124.462 32.6704 123.981 33.9155C123.451 35.2859 123.188 36.7437 123.205 38.2116C123.185 39.2944 123.367 40.3714 123.742 41.3883C124.068 42.2571 124.573 43.0484 125.227 43.7107C125.862 44.3391 126.624 44.8269 127.463 45.1422C128.35 45.4747 129.291 45.6414 130.238 45.6339C131.499 45.6369 132.744 45.3618 133.884 44.8284C135.039 44.2912 136.074 43.5307 136.93 42.5914C137.831 41.5985 138.54 40.4495 139.022 39.2019C139.55 37.8431 139.814 36.3971 139.798 34.9407C139.818 33.8572 139.633 32.7796 139.252 31.7639ZM134.242 37.5926C134.09 38.3402 133.837 39.064 133.49 39.7442C133.207 40.3101 132.802 40.8076 132.304 41.2018C131.853 41.5514 131.296 41.7394 130.723 41.7353C129.937 41.7353 129.371 41.4557 129.025 40.8966C128.678 40.3375 128.502 39.4309 128.498 38.1767C128.493 37.2946 128.582 36.4145 128.763 35.5509C128.912 34.8027 129.165 34.0785 129.515 33.3994C129.799 32.8364 130.204 32.342 130.7 31.9505C131.152 31.6009 131.709 31.4129 132.281 31.4169C133.066 31.4169 133.632 31.6907 133.98 32.2382C134.328 32.7856 134.504 33.6981 134.507 34.9755C134.511 35.8547 134.422 36.7319 134.242 37.5926Z" fill="#FBD100"/>
<path d="M137.874 45.9339C138.366 45.5706 138.822 45.162 139.237 44.7134L137.786 43.4929C137.369 43.9361 136.916 44.3444 136.432 44.7134L137.874 45.9339Z" fill="#FB9000"/>
<path d="M139.925 43.9058C140.292 43.4189 140.618 42.9028 140.899 42.3628L139.485 41.1754C139.19 41.7062 138.854 42.2139 138.481 42.694L139.925 43.9058Z" fill="#FB9000"/>
<path d="M132.538 46.5913C131.786 46.7707 131.015 46.8614 130.241 46.8616C129.78 46.8622 129.321 46.829 128.865 46.7622C129.167 46.9369 129.483 47.0868 129.81 47.2103C130.697 47.5428 131.638 47.7095 132.586 47.7019C132.98 47.701 133.374 47.6737 133.765 47.62L132.538 46.5913Z" fill="#FB9000"/>
<path d="M135.092 47.3357C135.488 47.2169 135.876 47.0706 136.251 46.8981C136.49 46.7865 136.722 46.6644 136.954 46.5354L135.538 45.3463C135.182 45.5659 134.814 45.765 134.435 45.9426C134.215 46.0437 133.992 46.1344 133.766 46.2198L135.092 47.3357Z" fill="#FB9000"/>
</svg>
